<svg xmlns="http://www.w3.org/2000/svg" viewBox="0 0 62.55 57.35"><defs><style>.cls-1{fill:#cfc;}</style></defs><title>자산 6</title><g id="레이어_2" data-name="레이어 2"><g id="레이어_1-2" data-name="레이어 1"><path class="cls-1" d="M62.45.05C55.33,0,48.22.05,41.11.05c0,9.47.06,19,0,28.47C34.46,19.14,28.17,9.46,21.45.18,14.32-.15,7.17.08,0,.07Q.06,28.68,0,57.3q10.71.06,21.43,0c.11-9.45-.13-18.92.13-28.38,2.34,3.28,4.48,6.7,6.88,9.94,4,6.21,8.52,12.08,12.37,18.38,7.19.19,14.38,0,21.58.11.08-.89.16-1.78.16-2.68C62.44,36.46,62.63,18.25,62.45.05Z"/></g></g></svg>