<svg xmlns="http://www.w3.org/2000/svg" viewBox="0 0 114.38 114.4"><defs><style>.cls-1{fill:#cfc;}.cls-2{fill:#4ab748;}</style></defs><title>자산 5</title><g id="레이어_2" data-name="레이어 2"><g id="레이어_1-2" data-name="레이어 1"><path class="cls-1" d="M88.28,28.56c-7.12-.06-14.23,0-21.34,0,0,9.47.06,19,0,28.47C60.29,47.65,54,38,47.28,28.69c-7.13-.33-14.28-.1-21.45-.11q.06,28.61,0,57.23,10.71.06,21.43,0c.11-9.45-.13-18.92.13-28.38,2.34,3.28,4.48,6.7,6.88,9.94,4,6.21,8.52,12.08,12.37,18.38,7.19.19,14.38,0,21.58.11.08-.89.16-1.78.16-2.68C88.27,65,88.46,46.76,88.28,28.56Z"/><path class="cls-2" d="M114.38,6.21c-.12-1.74.37-3.81-1-5.18a3.43,3.43,0,0,0-2.9-1H7.82A49.4,49.4,0,0,0,2.38.16,3.17,3.17,0,0,0,0,3.37V111c0,.1,0,.2,0,.31a3.22,3.22,0,0,0,3.39,3H110.52a3.25,3.25,0,0,0,.44,0,3.37,3.37,0,0,0,3.42-3.33Q114.32,58.65,114.38,6.21ZM88.22,85.86c-7.2-.11-14.39.08-21.58-.11-3.85-6.3-8.37-12.17-12.37-18.38-2.4-3.24-4.54-6.66-6.88-9.94-.26,9.46,0,18.93-.13,28.38q-10.71.06-21.43,0,.06-28.62,0-57.23c7.17,0,14.32-.22,21.45.11C54,38,60.29,47.65,66.9,57c.1-9.47,0-19,0-28.47,7.11,0,14.22-.06,21.34,0,.18,18.2,0,36.41.1,54.62C88.38,84.08,88.3,85,88.22,85.86Z"/></g></g></svg>